# xmcd
#
# Track frame offsets:
#	150
#	19874
#	39319
#	58775
#	77310
#	95603
#
# Disc length: 1490 seconds
#
# Revision: 1
# Processed by: cddbd v1.5.2PL0 Copyright (c) Steve Scherf et al.
# Submitted via: audiograbber 1.83.01
#
DISCID=3d05d006
DTITLE=EP2 - Blues Shakeout
DYEAR=1900
DGENRE=Blues
TTITLE0=All Your Love
TTITLE1=Neighbour
TTITLE2=Blind Hate Boogie
TTITLE3=Confessin' The Blues
TTITLE4=Sick N' Tired
TTITLE5=Crossroads
EXTD=
EXTT0=
EXTT1=
EXTT2=
EXTT3=
EXTT4=
EXTT5=
PLAYORDER=
